# xmcd CD database file
#
# Track frame offsets:
#	150
#	14937
#	32697
#	46728
#	65268
#	86298
#	102416
#	121879
#	140323
#	156885
#	172975
#
# Disc length: 2536 seconds
#
# Revision: 1
# Processed by: cddbd v1.5.2PL0 Copyright (c) Steve Scherf et al.
# Submitted via: CDex 1.51
#
DISCID=8609e60b
DTITLE=Hell's Gate Blues Band - Thin Line
DYEAR=2016
DGENRE=Blues
TTITLE0=Attraction
TTITLE1=Burning Bridges
TTITLE2=Love or the Booze
TTITLE3=Thin Line
TTITLE4=Smoke and Ashes
TTITLE5=Stitch the Pain
TTITLE6=Dancing Shoes
TTITLE7=Missing You
TTITLE8=Woodstock Redux
TTITLE9=Smiling Girls
TTITLE10=Bring Me Some Water
EXTD=YEAR: 2016
EXTT0=
EXTT1=
EXTT2=
EXTT3=
EXTT4=
EXTT5=
EXTT6=
EXTT7=
EXTT8=
EXTT9=
EXTT10=
PLAYORDER=
